<mxfile host="Electron" modified="2023-07-30T12:57:31.259Z" agent="Mozilla/5.0 (Macintosh; Intel Mac OS X 10_15_7) AppleWebKit/537.36 (KHTML, like Gecko) draw.io/21.6.5 Chrome/114.0.5735.243 Electron/25.3.1 Safari/537.36" etag="tcXOpPvQQgVYBGyHwSdd" version="21.6.5" type="device">
  <diagram name="Page-1" id="6133507b-19e7-1e82-6fc7-422aa6c4b21f">
    <mxGraphModel dx="1714" dy="1422" grid="1" gridSize="10" guides="1" tooltips="1" connect="1" arrows="1" fold="1" page="1" pageScale="1" pageWidth="900" pageHeight="500" background="none" math="0" shadow="0">
      <root>
        <mxCell id="0" />
        <mxCell id="1" parent="0" />
        <mxCell id="WQwjXUWEzfGx3JPkcmVE-19" value="Dome 1" style="swimlane;whiteSpace=wrap;html=1;dashed=1;dashPattern=8 8;swimlaneLine=1;glass=0;rounded=1;shadow=0;" vertex="1" parent="1">
          <mxGeometry x="50" y="20" width="400" height="125" as="geometry" />
        </mxCell>
        <mxCell id="WQwjXUWEzfGx3JPkcmVE-27" value="&lt;p style=&quot;margin:0px;margin-top:6px;text-align:center;&quot;&gt;&lt;b&gt;Domealert&lt;/b&gt;&lt;/p&gt;&lt;hr&gt;&lt;p style=&quot;margin:0px;margin-left:8px;&quot;&gt;Temperature&lt;/p&gt;&lt;p style=&quot;margin:0px;margin-left:8px;&quot;&gt;Humidity&lt;/p&gt;&lt;p style=&quot;margin:0px;margin-left:8px;&quot;&gt;&lt;span style=&quot;background-color: initial;&quot;&gt;Dome Belt Status&lt;/span&gt;&lt;/p&gt;" style="align=left;overflow=fill;html=1;dropTarget=0;whiteSpace=wrap;" vertex="1" parent="WQwjXUWEzfGx3JPkcmVE-19">
          <mxGeometry x="10" y="30" width="120" height="85" as="geometry" />
        </mxCell>
        <mxCell id="WQwjXUWEzfGx3JPkcmVE-30" value="&lt;p style=&quot;margin:0px;margin-top:6px;text-align:center;&quot;&gt;&lt;b&gt;Power Daemon&lt;/b&gt;&lt;/p&gt;&lt;hr&gt;&lt;p style=&quot;margin:0px;margin-left:8px;&quot;&gt;UPS Battery&lt;/p&gt;&lt;p style=&quot;margin:0px;margin-left:8px;&quot;&gt;Mains Power&lt;/p&gt;" style="align=left;overflow=fill;html=1;dropTarget=0;whiteSpace=wrap;" vertex="1" parent="WQwjXUWEzfGx3JPkcmVE-19">
          <mxGeometry x="140" y="30" width="120" height="85" as="geometry" />
        </mxCell>
        <mxCell id="WQwjXUWEzfGx3JPkcmVE-58" value="&lt;p style=&quot;margin:0px;margin-top:6px;text-align:center;&quot;&gt;&lt;b&gt;Diskspace Daemon&lt;/b&gt;&lt;/p&gt;&lt;hr&gt;&lt;p style=&quot;margin:0px;margin-left:8px;&quot;&gt;Bytes Free&lt;/p&gt;" style="align=left;overflow=fill;html=1;dropTarget=0;whiteSpace=wrap;" vertex="1" parent="WQwjXUWEzfGx3JPkcmVE-19">
          <mxGeometry x="270" y="30" width="120" height="85" as="geometry" />
        </mxCell>
        <mxCell id="WQwjXUWEzfGx3JPkcmVE-34" value="Polls" style="endArrow=classic;endSize=10;endFill=1;html=1;rounded=0;exitX=0.25;exitY=0;exitDx=0;exitDy=0;" edge="1" parent="1" source="WQwjXUWEzfGx3JPkcmVE-74">
          <mxGeometry x="-0.331" y="-2" width="160" relative="1" as="geometry">
            <mxPoint x="283" y="215" as="sourcePoint" />
            <mxPoint x="375" y="145" as="targetPoint" />
            <mxPoint as="offset" />
          </mxGeometry>
        </mxCell>
        <mxCell id="WQwjXUWEzfGx3JPkcmVE-46" value="Dome 2" style="swimlane;whiteSpace=wrap;html=1;dashed=1;dashPattern=8 8;swimlaneLine=1;glass=0;rounded=1;shadow=0;" vertex="1" parent="1">
          <mxGeometry x="470" y="20" width="400" height="125" as="geometry" />
        </mxCell>
        <mxCell id="WQwjXUWEzfGx3JPkcmVE-47" value="&lt;p style=&quot;margin:0px;margin-top:6px;text-align:center;&quot;&gt;&lt;b&gt;Domealert&lt;/b&gt;&lt;/p&gt;&lt;hr&gt;&lt;p style=&quot;margin:0px;margin-left:8px;&quot;&gt;Temperature&lt;/p&gt;&lt;p style=&quot;margin:0px;margin-left:8px;&quot;&gt;Humidity&lt;/p&gt;" style="align=left;overflow=fill;html=1;dropTarget=0;whiteSpace=wrap;" vertex="1" parent="WQwjXUWEzfGx3JPkcmVE-46">
          <mxGeometry x="10" y="30" width="120" height="85" as="geometry" />
        </mxCell>
        <mxCell id="WQwjXUWEzfGx3JPkcmVE-48" value="&lt;p style=&quot;margin:0px;margin-top:6px;text-align:center;&quot;&gt;&lt;b&gt;Power Daemon&lt;/b&gt;&lt;/p&gt;&lt;hr&gt;&lt;p style=&quot;margin:0px;margin-left:8px;&quot;&gt;UPS Battery&lt;/p&gt;&lt;p style=&quot;margin:0px;margin-left:8px;&quot;&gt;Mains Power&lt;/p&gt;" style="align=left;overflow=fill;html=1;dropTarget=0;whiteSpace=wrap;" vertex="1" parent="WQwjXUWEzfGx3JPkcmVE-46">
          <mxGeometry x="140" y="30" width="120" height="85" as="geometry" />
        </mxCell>
        <mxCell id="WQwjXUWEzfGx3JPkcmVE-65" value="&lt;p style=&quot;margin:0px;margin-top:6px;text-align:center;&quot;&gt;&lt;b&gt;Diskspace Daemon&lt;/b&gt;&lt;/p&gt;&lt;hr&gt;&lt;p style=&quot;margin:0px;margin-left:8px;&quot;&gt;Bytes Free&lt;/p&gt;" style="align=left;overflow=fill;html=1;dropTarget=0;whiteSpace=wrap;" vertex="1" parent="WQwjXUWEzfGx3JPkcmVE-46">
          <mxGeometry x="270" y="30" width="120" height="85" as="geometry" />
        </mxCell>
        <mxCell id="WQwjXUWEzfGx3JPkcmVE-49" value="Weather Mast 1" style="swimlane;whiteSpace=wrap;html=1;dashed=1;dashPattern=8 8;swimlaneLine=1;glass=0;rounded=1;shadow=0;" vertex="1" parent="1">
          <mxGeometry x="50" y="335" width="300" height="135" as="geometry" />
        </mxCell>
        <mxCell id="WQwjXUWEzfGx3JPkcmVE-50" value="&lt;p style=&quot;margin:0px;margin-top:6px;text-align:center;&quot;&gt;&lt;b&gt;Vaisala Daemon&lt;/b&gt;&lt;/p&gt;&lt;hr&gt;&lt;p style=&quot;margin:0px;margin-left:8px;&quot;&gt;Temperature&lt;/p&gt;&lt;p style=&quot;margin:0px;margin-left:8px;&quot;&gt;Humidity&lt;/p&gt;&lt;p style=&quot;margin:0px;margin-left:8px;&quot;&gt;&lt;span style=&quot;background-color: initial;&quot;&gt;Wind&lt;/span&gt;&lt;/p&gt;&lt;p style=&quot;margin:0px;margin-left:8px;&quot;&gt;&lt;span style=&quot;background-color: initial;&quot;&gt;Rain Sensors&lt;/span&gt;&lt;/p&gt;" style="align=left;overflow=fill;html=1;dropTarget=0;whiteSpace=wrap;" vertex="1" parent="WQwjXUWEzfGx3JPkcmVE-49">
          <mxGeometry x="10" y="30" width="120" height="95" as="geometry" />
        </mxCell>
        <mxCell id="WQwjXUWEzfGx3JPkcmVE-51" value="&lt;p style=&quot;margin:0px;margin-top:6px;text-align:center;&quot;&gt;&lt;b&gt;Cloudwatcher Daemon&lt;/b&gt;&lt;/p&gt;&lt;hr&gt;&lt;p style=&quot;margin:0px;margin-left:8px;&quot;&gt;Sky Temperature&lt;/p&gt;&lt;p style=&quot;margin:0px;margin-left:8px;&quot;&gt;Brightness&lt;/p&gt;" style="align=left;overflow=fill;html=1;dropTarget=0;whiteSpace=wrap;" vertex="1" parent="WQwjXUWEzfGx3JPkcmVE-49">
          <mxGeometry x="140" y="30" width="150" height="95" as="geometry" />
        </mxCell>
        <mxCell id="WQwjXUWEzfGx3JPkcmVE-59" value="Other Daemons" style="swimlane;whiteSpace=wrap;html=1;dashed=1;dashPattern=8 8;swimlaneLine=1;glass=0;rounded=1;shadow=0;" vertex="1" parent="1">
          <mxGeometry x="540" y="335" width="250" height="120" as="geometry" />
        </mxCell>
        <mxCell id="WQwjXUWEzfGx3JPkcmVE-67" value="Sun Altitude" style="html=1;whiteSpace=wrap;" vertex="1" parent="WQwjXUWEzfGx3JPkcmVE-59">
          <mxGeometry x="10" y="30" width="110" height="20" as="geometry" />
        </mxCell>
        <mxCell id="WQwjXUWEzfGx3JPkcmVE-68" value="Network Status" style="html=1;whiteSpace=wrap;" vertex="1" parent="WQwjXUWEzfGx3JPkcmVE-59">
          <mxGeometry x="10" y="60" width="110" height="20" as="geometry" />
        </mxCell>
        <mxCell id="WQwjXUWEzfGx3JPkcmVE-69" value="Manual Override" style="html=1;whiteSpace=wrap;" vertex="1" parent="WQwjXUWEzfGx3JPkcmVE-59">
          <mxGeometry x="10" y="90" width="110" height="20" as="geometry" />
        </mxCell>
        <mxCell id="WQwjXUWEzfGx3JPkcmVE-70" value="Info scraped&lt;br&gt;from internet" style="html=1;whiteSpace=wrap;" vertex="1" parent="WQwjXUWEzfGx3JPkcmVE-59">
          <mxGeometry x="130" y="30" width="110" height="50" as="geometry" />
        </mxCell>
        <mxCell id="WQwjXUWEzfGx3JPkcmVE-71" value="Dust" style="html=1;whiteSpace=wrap;" vertex="1" parent="WQwjXUWEzfGx3JPkcmVE-59">
          <mxGeometry x="130" y="90" width="110" height="20" as="geometry" />
        </mxCell>
        <mxCell id="WQwjXUWEzfGx3JPkcmVE-62" value="Weather Mast 2" style="swimlane;whiteSpace=wrap;html=1;dashed=1;dashPattern=8 8;swimlaneLine=1;glass=0;rounded=1;shadow=0;" vertex="1" parent="1">
          <mxGeometry x="380" y="335" width="140" height="120" as="geometry" />
        </mxCell>
        <mxCell id="WQwjXUWEzfGx3JPkcmVE-63" value="&lt;p style=&quot;margin:0px;margin-top:6px;text-align:center;&quot;&gt;&lt;b&gt;Vaisala Daemon&lt;/b&gt;&lt;/p&gt;&lt;hr&gt;&lt;p style=&quot;margin:0px;margin-left:8px;&quot;&gt;Temperature&lt;/p&gt;&lt;p style=&quot;margin:0px;margin-left:8px;&quot;&gt;Humidity&lt;/p&gt;&lt;p style=&quot;margin:0px;margin-left:8px;&quot;&gt;&lt;span style=&quot;background-color: initial;&quot;&gt;Wind&lt;/span&gt;&lt;/p&gt;" style="align=left;overflow=fill;html=1;dropTarget=0;whiteSpace=wrap;" vertex="1" parent="WQwjXUWEzfGx3JPkcmVE-62">
          <mxGeometry x="10" y="30" width="120" height="80" as="geometry" />
        </mxCell>
        <mxCell id="WQwjXUWEzfGx3JPkcmVE-83" style="rounded=0;orthogonalLoop=1;jettySize=auto;html=1;startArrow=none;endArrow=classic;exitX=0.5;exitY=1;exitDx=0;exitDy=0;entryX=0.5;entryY=0;entryDx=0;entryDy=0;endFill=1;endSize=10;" edge="1" parent="1" source="WQwjXUWEzfGx3JPkcmVE-74" target="WQwjXUWEzfGx3JPkcmVE-62">
          <mxGeometry relative="1" as="geometry" />
        </mxCell>
        <mxCell id="WQwjXUWEzfGx3JPkcmVE-84" value="&lt;br&gt;" style="edgeLabel;html=1;align=center;verticalAlign=middle;resizable=0;points=[];" vertex="1" connectable="0" parent="WQwjXUWEzfGx3JPkcmVE-83">
          <mxGeometry x="0.5009" y="-2" relative="1" as="geometry">
            <mxPoint as="offset" />
          </mxGeometry>
        </mxCell>
        <mxCell id="WQwjXUWEzfGx3JPkcmVE-85" value="Polls" style="edgeLabel;html=1;align=center;verticalAlign=middle;resizable=0;points=[];" vertex="1" connectable="0" parent="WQwjXUWEzfGx3JPkcmVE-83">
          <mxGeometry x="0.4313" y="-2" relative="1" as="geometry">
            <mxPoint x="2" y="-16" as="offset" />
          </mxGeometry>
        </mxCell>
        <UserObject label="Environment Daemon" treeRoot="1" id="WQwjXUWEzfGx3JPkcmVE-74">
          <mxCell style="whiteSpace=wrap;html=1;align=center;treeFolding=1;treeMoving=1;newEdgeStyle={&quot;edgeStyle&quot;:&quot;elbowEdgeStyle&quot;,&quot;startArrow&quot;:&quot;none&quot;,&quot;endArrow&quot;:&quot;none&quot;};" vertex="1" parent="1">
            <mxGeometry x="300" y="195" width="300" height="90" as="geometry" />
          </mxCell>
        </UserObject>
        <mxCell id="WQwjXUWEzfGx3JPkcmVE-81" value="Polls" style="endArrow=classic;endSize=10;endFill=1;html=1;rounded=0;exitX=0.75;exitY=0;exitDx=0;exitDy=0;" edge="1" parent="1" source="WQwjXUWEzfGx3JPkcmVE-74">
          <mxGeometry x="-0.331" y="-2" width="160" relative="1" as="geometry">
            <mxPoint x="385" y="205" as="sourcePoint" />
            <mxPoint x="525" y="145" as="targetPoint" />
            <mxPoint as="offset" />
          </mxGeometry>
        </mxCell>
        <mxCell id="WQwjXUWEzfGx3JPkcmVE-86" style="rounded=0;orthogonalLoop=1;jettySize=auto;html=1;startArrow=none;endArrow=classic;exitX=0.5;exitY=1;exitDx=0;exitDy=0;entryX=0.5;entryY=0;entryDx=0;entryDy=0;endFill=1;endSize=10;" edge="1" parent="1">
          <mxGeometry relative="1" as="geometry">
            <mxPoint x="570" y="285" as="sourcePoint" />
            <mxPoint x="570" y="335" as="targetPoint" />
          </mxGeometry>
        </mxCell>
        <mxCell id="WQwjXUWEzfGx3JPkcmVE-87" value="&lt;br&gt;" style="edgeLabel;html=1;align=center;verticalAlign=middle;resizable=0;points=[];" vertex="1" connectable="0" parent="WQwjXUWEzfGx3JPkcmVE-86">
          <mxGeometry x="0.5009" y="-2" relative="1" as="geometry">
            <mxPoint as="offset" />
          </mxGeometry>
        </mxCell>
        <mxCell id="WQwjXUWEzfGx3JPkcmVE-88" value="Polls" style="edgeLabel;html=1;align=center;verticalAlign=middle;resizable=0;points=[];" vertex="1" connectable="0" parent="WQwjXUWEzfGx3JPkcmVE-86">
          <mxGeometry x="0.4313" y="-2" relative="1" as="geometry">
            <mxPoint x="2" y="-16" as="offset" />
          </mxGeometry>
        </mxCell>
        <mxCell id="WQwjXUWEzfGx3JPkcmVE-89" style="rounded=0;orthogonalLoop=1;jettySize=auto;html=1;startArrow=none;endArrow=classic;exitX=0.5;exitY=1;exitDx=0;exitDy=0;entryX=0.5;entryY=0;entryDx=0;entryDy=0;endFill=1;endSize=10;" edge="1" parent="1">
          <mxGeometry relative="1" as="geometry">
            <mxPoint x="330" y="285" as="sourcePoint" />
            <mxPoint x="330" y="335" as="targetPoint" />
          </mxGeometry>
        </mxCell>
        <mxCell id="WQwjXUWEzfGx3JPkcmVE-90" value="&lt;br&gt;" style="edgeLabel;html=1;align=center;verticalAlign=middle;resizable=0;points=[];" vertex="1" connectable="0" parent="WQwjXUWEzfGx3JPkcmVE-89">
          <mxGeometry x="0.5009" y="-2" relative="1" as="geometry">
            <mxPoint as="offset" />
          </mxGeometry>
        </mxCell>
        <mxCell id="WQwjXUWEzfGx3JPkcmVE-91" value="Polls" style="edgeLabel;html=1;align=center;verticalAlign=middle;resizable=0;points=[];" vertex="1" connectable="0" parent="WQwjXUWEzfGx3JPkcmVE-89">
          <mxGeometry x="0.4313" y="-2" relative="1" as="geometry">
            <mxPoint x="2" y="-16" as="offset" />
          </mxGeometry>
        </mxCell>
      </root>
    </mxGraphModel>
  </diagram>
</mxfile>
